<?xml version="1.0" encoding="utf-8"?>
<!-- Generator: Adobe Illustrator 16.0.0, SVG Export Plug-In . SVG Version: 6.00 Build 0)  -->
<!DOCTYPE svg PUBLIC "-//W3C//DTD SVG 1.1//EN" "http://www.w3.org/Graphics/SVG/1.1/DTD/svg11.dtd">
<svg version="1.1" id="Calque_1" xmlns="http://www.w3.org/2000/svg" xmlns:xlink="http://www.w3.org/1999/xlink" x="0px" y="0px"
	 width="128px" height="128px" viewBox="0 0 128 128" enable-background="new 0 0 128 128" xml:space="preserve">
<path fill="none" stroke="#E52620" stroke-width="5.465" stroke-miterlimit="10" d="M92.541,63.842V8.85
	c0-3.021-2.444-5.465-5.466-5.465h-75.83c-3.01,0-5.465,2.444-5.465,5.465V118.15c0,3.021,2.455,5.465,5.465,5.465h75.83
	c3.021,0,5.466-2.444,5.466-5.465v-6.266"/>
<g>
	<path fill="#E52420" d="M51.697,104.701H27.121V70.63h8.787v27.48h15.79V104.701z"/>
	<path fill="#E52420" d="M90.112,87.677c0,5.433-1.559,9.745-4.664,12.941c-3.117,3.197-7.419,4.793-12.905,4.793
		c-5.476,0-9.772-1.596-12.889-4.793c-3.108-3.196-4.665-7.509-4.665-12.941c0-5.477,1.556-9.805,4.665-12.985
		c3.117-3.181,7.413-4.771,12.889-4.771c5.454,0,9.756,1.591,12.884,4.771C88.554,77.872,90.112,82.2,90.112,87.677z M78.467,96.306
		c0.854-1.04,1.484-2.263,1.9-3.677c0.416-1.409,0.619-3.068,0.619-4.974c0-2.044-0.235-3.784-0.716-5.22
		c-0.469-1.431-1.088-2.594-1.846-3.475c-0.779-0.918-1.676-1.579-2.69-1.99c-1.014-0.417-2.07-0.619-3.17-0.619
		c-1.11,0-2.167,0.197-3.148,0.592c-0.982,0.4-1.89,1.057-2.712,1.97c-0.758,0.854-1.388,2.033-1.868,3.533
		c-0.48,1.505-0.715,3.25-0.715,5.23c0,2.027,0.235,3.757,0.694,5.182c0.47,1.431,1.078,2.589,1.847,3.49
		c0.758,0.902,1.654,1.563,2.679,1.991c1.014,0.427,2.092,0.64,3.224,0.64s2.199-0.219,3.224-0.65
		C76.813,97.892,77.709,97.219,78.467,96.306z"/>
	<path fill="#E52420" d="M126.953,102.759c-1.526,0.592-3.544,1.185-6.063,1.771c-2.52,0.587-5.027,0.881-7.53,0.881
		c-5.796,0-10.333-1.574-13.615-4.724c-3.276-3.154-4.915-7.504-4.915-13.054c0-5.294,1.654-9.563,4.964-12.804
		c3.309-3.242,7.925-4.864,13.844-4.864c2.241,0,4.376,0.203,6.404,0.608c2.028,0.402,4.285,1.209,6.772,2.415v7.983h-0.982
		c-0.427-0.319-1.051-0.773-1.878-1.36c-0.822-0.587-1.617-1.089-2.375-1.5c-0.886-0.485-1.922-0.907-3.101-1.26
		c-1.186-0.347-2.439-0.522-3.769-0.522c-1.553,0-2.967,0.224-4.232,0.683c-1.265,0.459-2.401,1.158-3.41,2.108
		c-0.96,0.913-1.718,2.076-2.273,3.49c-0.561,1.409-0.838,3.037-0.838,4.884c0,3.768,0.998,6.649,3,8.651
		c1.995,1.995,4.947,2.993,8.854,2.993c0.336,0,0.704-0.005,1.11-0.021c0.405-0.017,0.773-0.038,1.109-0.07v-6.682h-6.793v-6.431
		h15.717V102.759z"/>
</g>
</svg>
