<?xml version="1.0" encoding="utf-8"?>
<!-- Generator: Adobe Illustrator 16.0.0, SVG Export Plug-In . SVG Version: 6.00 Build 0)  -->
<!DOCTYPE svg PUBLIC "-//W3C//DTD SVG 1.1//EN" "http://www.w3.org/Graphics/SVG/1.1/DTD/svg11.dtd">
<svg version="1.1" id="Calque_1" xmlns="http://www.w3.org/2000/svg" xmlns:xlink="http://www.w3.org/1999/xlink" x="0px" y="0px"
	 width="128px" height="128px" viewBox="0 0 128 128" enable-background="new 0 0 128 128" xml:space="preserve">
<path fill="none" stroke="#E52620" stroke-width="5.1714" stroke-miterlimit="10" d="M88.616,97.357 M91.934,46.553
	c-17.978,0-32.539,14.564-32.539,32.538c0,17.973,14.561,32.539,32.539,32.539c14.079,0,26.028-8.959,30.56-21.483 M122.497,90.146
	c1.247-3.455,1.979-7.167,1.979-11.056c0-17.974-14.568-32.538-32.537-32.538"/>
<path fill="none" stroke="#E52620" stroke-width="5.1714" stroke-miterlimit="10" d="M90.944,46.553
	c5.863,0,11.347,1.571,16.094,4.283V18.193c0-2.417-2.384-4.372-5.327-4.372H9.868c-2.945,0-5.328,1.95-5.328,4.372v73.154
	c0,2.414,2.383,4.363,5.328,4.363h53.123c-2.904-4.868-4.601-10.534-4.601-16.61C58.405,61.117,72.98,46.553,90.944,46.553
	L90.944,46.553z"/>
<path fill="none" stroke="#E52620" stroke-width="10.3428" stroke-miterlimit="10" d="M4.398,28.467h40.079 M44.9,39.22h28.015
	 M20.18,53.89h28.666 M49.153,64.642h13.652 M2.676,80.822h51.497"/>
<path fill="#E52620" d="M88.625,97.358L88.625,97.358c-1.062,0-2.081-0.404-2.879-1.161L72.564,83.622
	c-1.661-1.596-1.722-4.212-0.136-5.899c1.591-1.646,4.217-1.717,5.889-0.126l9.687,9.237l17.028-24.252
	c1.324-1.868,3.925-2.322,5.793-0.999c1.879,1.317,2.334,3.919,1.015,5.798L92.029,95.58c-0.698,0.99-1.794,1.627-2.996,1.758
	C88.902,97.349,88.761,97.358,88.625,97.358"/>
</svg>
